%TF.GenerationSoftware,KiCad,Pcbnew,5.1.8-db9833491~87~ubuntu20.04.1*%
%TF.CreationDate,2020-11-29T21:19:56-07:00*%
%TF.ProjectId,smallcurrent,736d616c-6c63-4757-9272-656e742e6b69,rev?*%
%TF.SameCoordinates,Original*%
%TF.FileFunction,Paste,Bot*%
%TF.FilePolarity,Positive*%
%FSLAX46Y46*%
G04 Gerber Fmt 4.6, Leading zero omitted, Abs format (unit mm)*
G04 Created by KiCad (PCBNEW 5.1.8-db9833491~87~ubuntu20.04.1) date 2020-11-29 21:19:56*
%MOMM*%
%LPD*%
G01*
G04 APERTURE LIST*
%ADD10R,2.006600X2.048000*%
%ADD11R,1.143000X1.397000*%
%ADD12R,0.650000X1.060000*%
%ADD13R,0.800000X0.900000*%
G04 APERTURE END LIST*
D10*
%TO.C,R1*%
X145177900Y-160951000D03*
D11*
X142790300Y-161276500D03*
X145609700Y-156323500D03*
D10*
X143222100Y-156649000D03*
%TD*%
%TO.C,R8*%
G36*
G01*
X137225000Y-131875000D02*
X137225000Y-131325000D01*
G75*
G02*
X137425000Y-131125000I200000J0D01*
G01*
X137825000Y-131125000D01*
G75*
G02*
X138025000Y-131325000I0J-200000D01*
G01*
X138025000Y-131875000D01*
G75*
G02*
X137825000Y-132075000I-200000J0D01*
G01*
X137425000Y-132075000D01*
G75*
G02*
X137225000Y-131875000I0J200000D01*
G01*
G37*
G36*
G01*
X135575000Y-131875000D02*
X135575000Y-131325000D01*
G75*
G02*
X135775000Y-131125000I200000J0D01*
G01*
X136175000Y-131125000D01*
G75*
G02*
X136375000Y-131325000I0J-200000D01*
G01*
X136375000Y-131875000D01*
G75*
G02*
X136175000Y-132075000I-200000J0D01*
G01*
X135775000Y-132075000D01*
G75*
G02*
X135575000Y-131875000I0J200000D01*
G01*
G37*
%TD*%
D12*
%TO.C,U4*%
X136800000Y-127300000D03*
X137750000Y-127300000D03*
X135850000Y-127300000D03*
X135850000Y-129500000D03*
X136800000Y-129500000D03*
X137750000Y-129500000D03*
%TD*%
D13*
%TO.C,U3*%
X104200000Y-124000000D03*
X103250000Y-126000000D03*
X105150000Y-126000000D03*
%TD*%
D12*
%TO.C,U2*%
X124250000Y-131500000D03*
X126150000Y-131500000D03*
X126150000Y-129300000D03*
X125200000Y-129300000D03*
X124250000Y-129300000D03*
%TD*%
%TO.C,U1*%
X144800000Y-127300000D03*
X145750000Y-127300000D03*
X143850000Y-127300000D03*
X143850000Y-129500000D03*
X144800000Y-129500000D03*
X145750000Y-129500000D03*
%TD*%
%TO.C,R15*%
G36*
G01*
X137350000Y-125256250D02*
X137350000Y-124743750D01*
G75*
G02*
X137568750Y-124525000I218750J0D01*
G01*
X138006250Y-124525000D01*
G75*
G02*
X138225000Y-124743750I0J-218750D01*
G01*
X138225000Y-125256250D01*
G75*
G02*
X138006250Y-125475000I-218750J0D01*
G01*
X137568750Y-125475000D01*
G75*
G02*
X137350000Y-125256250I0J218750D01*
G01*
G37*
G36*
G01*
X135775000Y-125256250D02*
X135775000Y-124743750D01*
G75*
G02*
X135993750Y-124525000I218750J0D01*
G01*
X136431250Y-124525000D01*
G75*
G02*
X136650000Y-124743750I0J-218750D01*
G01*
X136650000Y-125256250D01*
G75*
G02*
X136431250Y-125475000I-218750J0D01*
G01*
X135993750Y-125475000D01*
G75*
G02*
X135775000Y-125256250I0J218750D01*
G01*
G37*
%TD*%
%TO.C,R14*%
G36*
G01*
X134256250Y-130450000D02*
X133743750Y-130450000D01*
G75*
G02*
X133525000Y-130231250I0J218750D01*
G01*
X133525000Y-129793750D01*
G75*
G02*
X133743750Y-129575000I218750J0D01*
G01*
X134256250Y-129575000D01*
G75*
G02*
X134475000Y-129793750I0J-218750D01*
G01*
X134475000Y-130231250D01*
G75*
G02*
X134256250Y-130450000I-218750J0D01*
G01*
G37*
G36*
G01*
X134256250Y-132025000D02*
X133743750Y-132025000D01*
G75*
G02*
X133525000Y-131806250I0J218750D01*
G01*
X133525000Y-131368750D01*
G75*
G02*
X133743750Y-131150000I218750J0D01*
G01*
X134256250Y-131150000D01*
G75*
G02*
X134475000Y-131368750I0J-218750D01*
G01*
X134475000Y-131806250D01*
G75*
G02*
X134256250Y-132025000I-218750J0D01*
G01*
G37*
%TD*%
%TO.C,R13*%
G36*
G01*
X134256250Y-126850000D02*
X133743750Y-126850000D01*
G75*
G02*
X133525000Y-126631250I0J218750D01*
G01*
X133525000Y-126193750D01*
G75*
G02*
X133743750Y-125975000I218750J0D01*
G01*
X134256250Y-125975000D01*
G75*
G02*
X134475000Y-126193750I0J-218750D01*
G01*
X134475000Y-126631250D01*
G75*
G02*
X134256250Y-126850000I-218750J0D01*
G01*
G37*
G36*
G01*
X134256250Y-128425000D02*
X133743750Y-128425000D01*
G75*
G02*
X133525000Y-128206250I0J218750D01*
G01*
X133525000Y-127768750D01*
G75*
G02*
X133743750Y-127550000I218750J0D01*
G01*
X134256250Y-127550000D01*
G75*
G02*
X134475000Y-127768750I0J-218750D01*
G01*
X134475000Y-128206250D01*
G75*
G02*
X134256250Y-128425000I-218750J0D01*
G01*
G37*
%TD*%
%TO.C,R12*%
G36*
G01*
X144250000Y-131343750D02*
X144250000Y-131856250D01*
G75*
G02*
X144031250Y-132075000I-218750J0D01*
G01*
X143593750Y-132075000D01*
G75*
G02*
X143375000Y-131856250I0J218750D01*
G01*
X143375000Y-131343750D01*
G75*
G02*
X143593750Y-131125000I218750J0D01*
G01*
X144031250Y-131125000D01*
G75*
G02*
X144250000Y-131343750I0J-218750D01*
G01*
G37*
G36*
G01*
X145825000Y-131343750D02*
X145825000Y-131856250D01*
G75*
G02*
X145606250Y-132075000I-218750J0D01*
G01*
X145168750Y-132075000D01*
G75*
G02*
X144950000Y-131856250I0J218750D01*
G01*
X144950000Y-131343750D01*
G75*
G02*
X145168750Y-131125000I218750J0D01*
G01*
X145606250Y-131125000D01*
G75*
G02*
X145825000Y-131343750I0J-218750D01*
G01*
G37*
%TD*%
%TO.C,R11*%
G36*
G01*
X142256250Y-130050000D02*
X141743750Y-130050000D01*
G75*
G02*
X141525000Y-129831250I0J218750D01*
G01*
X141525000Y-129393750D01*
G75*
G02*
X141743750Y-129175000I218750J0D01*
G01*
X142256250Y-129175000D01*
G75*
G02*
X142475000Y-129393750I0J-218750D01*
G01*
X142475000Y-129831250D01*
G75*
G02*
X142256250Y-130050000I-218750J0D01*
G01*
G37*
G36*
G01*
X142256250Y-131625000D02*
X141743750Y-131625000D01*
G75*
G02*
X141525000Y-131406250I0J218750D01*
G01*
X141525000Y-130968750D01*
G75*
G02*
X141743750Y-130750000I218750J0D01*
G01*
X142256250Y-130750000D01*
G75*
G02*
X142475000Y-130968750I0J-218750D01*
G01*
X142475000Y-131406250D01*
G75*
G02*
X142256250Y-131625000I-218750J0D01*
G01*
G37*
%TD*%
%TO.C,R10*%
G36*
G01*
X128543750Y-128750000D02*
X129056250Y-128750000D01*
G75*
G02*
X129275000Y-128968750I0J-218750D01*
G01*
X129275000Y-129406250D01*
G75*
G02*
X129056250Y-129625000I-218750J0D01*
G01*
X128543750Y-129625000D01*
G75*
G02*
X128325000Y-129406250I0J218750D01*
G01*
X128325000Y-128968750D01*
G75*
G02*
X128543750Y-128750000I218750J0D01*
G01*
G37*
G36*
G01*
X128543750Y-127175000D02*
X129056250Y-127175000D01*
G75*
G02*
X129275000Y-127393750I0J-218750D01*
G01*
X129275000Y-127831250D01*
G75*
G02*
X129056250Y-128050000I-218750J0D01*
G01*
X128543750Y-128050000D01*
G75*
G02*
X128325000Y-127831250I0J218750D01*
G01*
X128325000Y-127393750D01*
G75*
G02*
X128543750Y-127175000I218750J0D01*
G01*
G37*
%TD*%
%TO.C,R9*%
G36*
G01*
X145050000Y-154056250D02*
X145050000Y-153143750D01*
G75*
G02*
X145293750Y-152900000I243750J0D01*
G01*
X145781250Y-152900000D01*
G75*
G02*
X146025000Y-153143750I0J-243750D01*
G01*
X146025000Y-154056250D01*
G75*
G02*
X145781250Y-154300000I-243750J0D01*
G01*
X145293750Y-154300000D01*
G75*
G02*
X145050000Y-154056250I0J243750D01*
G01*
G37*
G36*
G01*
X143175000Y-154056250D02*
X143175000Y-153143750D01*
G75*
G02*
X143418750Y-152900000I243750J0D01*
G01*
X143906250Y-152900000D01*
G75*
G02*
X144150000Y-153143750I0J-243750D01*
G01*
X144150000Y-154056250D01*
G75*
G02*
X143906250Y-154300000I-243750J0D01*
G01*
X143418750Y-154300000D01*
G75*
G02*
X143175000Y-154056250I0J243750D01*
G01*
G37*
%TD*%
%TO.C,R7*%
G36*
G01*
X122856250Y-127650000D02*
X122343750Y-127650000D01*
G75*
G02*
X122125000Y-127431250I0J218750D01*
G01*
X122125000Y-126993750D01*
G75*
G02*
X122343750Y-126775000I218750J0D01*
G01*
X122856250Y-126775000D01*
G75*
G02*
X123075000Y-126993750I0J-218750D01*
G01*
X123075000Y-127431250D01*
G75*
G02*
X122856250Y-127650000I-218750J0D01*
G01*
G37*
G36*
G01*
X122856250Y-129225000D02*
X122343750Y-129225000D01*
G75*
G02*
X122125000Y-129006250I0J218750D01*
G01*
X122125000Y-128568750D01*
G75*
G02*
X122343750Y-128350000I218750J0D01*
G01*
X122856250Y-128350000D01*
G75*
G02*
X123075000Y-128568750I0J-218750D01*
G01*
X123075000Y-129006250D01*
G75*
G02*
X122856250Y-129225000I-218750J0D01*
G01*
G37*
%TD*%
%TO.C,R6*%
G36*
G01*
X122856250Y-130650000D02*
X122343750Y-130650000D01*
G75*
G02*
X122125000Y-130431250I0J218750D01*
G01*
X122125000Y-129993750D01*
G75*
G02*
X122343750Y-129775000I218750J0D01*
G01*
X122856250Y-129775000D01*
G75*
G02*
X123075000Y-129993750I0J-218750D01*
G01*
X123075000Y-130431250D01*
G75*
G02*
X122856250Y-130650000I-218750J0D01*
G01*
G37*
G36*
G01*
X122856250Y-132225000D02*
X122343750Y-132225000D01*
G75*
G02*
X122125000Y-132006250I0J218750D01*
G01*
X122125000Y-131568750D01*
G75*
G02*
X122343750Y-131350000I218750J0D01*
G01*
X122856250Y-131350000D01*
G75*
G02*
X123075000Y-131568750I0J-218750D01*
G01*
X123075000Y-132006250D01*
G75*
G02*
X122856250Y-132225000I-218750J0D01*
G01*
G37*
%TD*%
%TO.C,R5*%
G36*
G01*
X140056250Y-126250000D02*
X139543750Y-126250000D01*
G75*
G02*
X139325000Y-126031250I0J218750D01*
G01*
X139325000Y-125593750D01*
G75*
G02*
X139543750Y-125375000I218750J0D01*
G01*
X140056250Y-125375000D01*
G75*
G02*
X140275000Y-125593750I0J-218750D01*
G01*
X140275000Y-126031250D01*
G75*
G02*
X140056250Y-126250000I-218750J0D01*
G01*
G37*
G36*
G01*
X140056250Y-127825000D02*
X139543750Y-127825000D01*
G75*
G02*
X139325000Y-127606250I0J218750D01*
G01*
X139325000Y-127168750D01*
G75*
G02*
X139543750Y-126950000I218750J0D01*
G01*
X140056250Y-126950000D01*
G75*
G02*
X140275000Y-127168750I0J-218750D01*
G01*
X140275000Y-127606250D01*
G75*
G02*
X140056250Y-127825000I-218750J0D01*
G01*
G37*
%TD*%
%TO.C,R4*%
G36*
G01*
X107256250Y-124850000D02*
X106743750Y-124850000D01*
G75*
G02*
X106525000Y-124631250I0J218750D01*
G01*
X106525000Y-124193750D01*
G75*
G02*
X106743750Y-123975000I218750J0D01*
G01*
X107256250Y-123975000D01*
G75*
G02*
X107475000Y-124193750I0J-218750D01*
G01*
X107475000Y-124631250D01*
G75*
G02*
X107256250Y-124850000I-218750J0D01*
G01*
G37*
G36*
G01*
X107256250Y-126425000D02*
X106743750Y-126425000D01*
G75*
G02*
X106525000Y-126206250I0J218750D01*
G01*
X106525000Y-125768750D01*
G75*
G02*
X106743750Y-125550000I218750J0D01*
G01*
X107256250Y-125550000D01*
G75*
G02*
X107475000Y-125768750I0J-218750D01*
G01*
X107475000Y-126206250D01*
G75*
G02*
X107256250Y-126425000I-218750J0D01*
G01*
G37*
%TD*%
%TO.C,R3*%
G36*
G01*
X142256250Y-126250000D02*
X141743750Y-126250000D01*
G75*
G02*
X141525000Y-126031250I0J218750D01*
G01*
X141525000Y-125593750D01*
G75*
G02*
X141743750Y-125375000I218750J0D01*
G01*
X142256250Y-125375000D01*
G75*
G02*
X142475000Y-125593750I0J-218750D01*
G01*
X142475000Y-126031250D01*
G75*
G02*
X142256250Y-126250000I-218750J0D01*
G01*
G37*
G36*
G01*
X142256250Y-127825000D02*
X141743750Y-127825000D01*
G75*
G02*
X141525000Y-127606250I0J218750D01*
G01*
X141525000Y-127168750D01*
G75*
G02*
X141743750Y-126950000I218750J0D01*
G01*
X142256250Y-126950000D01*
G75*
G02*
X142475000Y-127168750I0J-218750D01*
G01*
X142475000Y-127606250D01*
G75*
G02*
X142256250Y-127825000I-218750J0D01*
G01*
G37*
%TD*%
%TO.C,R2*%
G36*
G01*
X137743750Y-156375000D02*
X138256250Y-156375000D01*
G75*
G02*
X138475000Y-156593750I0J-218750D01*
G01*
X138475000Y-157031250D01*
G75*
G02*
X138256250Y-157250000I-218750J0D01*
G01*
X137743750Y-157250000D01*
G75*
G02*
X137525000Y-157031250I0J218750D01*
G01*
X137525000Y-156593750D01*
G75*
G02*
X137743750Y-156375000I218750J0D01*
G01*
G37*
G36*
G01*
X137743750Y-157950000D02*
X138256250Y-157950000D01*
G75*
G02*
X138475000Y-158168750I0J-218750D01*
G01*
X138475000Y-158606250D01*
G75*
G02*
X138256250Y-158825000I-218750J0D01*
G01*
X137743750Y-158825000D01*
G75*
G02*
X137525000Y-158606250I0J218750D01*
G01*
X137525000Y-158168750D01*
G75*
G02*
X137743750Y-157950000I218750J0D01*
G01*
G37*
%TD*%
%TO.C,C6*%
G36*
G01*
X125656250Y-126250000D02*
X125143750Y-126250000D01*
G75*
G02*
X124925000Y-126031250I0J218750D01*
G01*
X124925000Y-125593750D01*
G75*
G02*
X125143750Y-125375000I218750J0D01*
G01*
X125656250Y-125375000D01*
G75*
G02*
X125875000Y-125593750I0J-218750D01*
G01*
X125875000Y-126031250D01*
G75*
G02*
X125656250Y-126250000I-218750J0D01*
G01*
G37*
G36*
G01*
X125656250Y-127825000D02*
X125143750Y-127825000D01*
G75*
G02*
X124925000Y-127606250I0J218750D01*
G01*
X124925000Y-127168750D01*
G75*
G02*
X125143750Y-126950000I218750J0D01*
G01*
X125656250Y-126950000D01*
G75*
G02*
X125875000Y-127168750I0J-218750D01*
G01*
X125875000Y-127606250D01*
G75*
G02*
X125656250Y-127825000I-218750J0D01*
G01*
G37*
%TD*%
%TO.C,C5*%
G36*
G01*
X132150000Y-124056250D02*
X132150000Y-123543750D01*
G75*
G02*
X132368750Y-123325000I218750J0D01*
G01*
X132806250Y-123325000D01*
G75*
G02*
X133025000Y-123543750I0J-218750D01*
G01*
X133025000Y-124056250D01*
G75*
G02*
X132806250Y-124275000I-218750J0D01*
G01*
X132368750Y-124275000D01*
G75*
G02*
X132150000Y-124056250I0J218750D01*
G01*
G37*
G36*
G01*
X130575000Y-124056250D02*
X130575000Y-123543750D01*
G75*
G02*
X130793750Y-123325000I218750J0D01*
G01*
X131231250Y-123325000D01*
G75*
G02*
X131450000Y-123543750I0J-218750D01*
G01*
X131450000Y-124056250D01*
G75*
G02*
X131231250Y-124275000I-218750J0D01*
G01*
X130793750Y-124275000D01*
G75*
G02*
X130575000Y-124056250I0J218750D01*
G01*
G37*
%TD*%
%TO.C,C4*%
G36*
G01*
X131743750Y-127550000D02*
X132256250Y-127550000D01*
G75*
G02*
X132475000Y-127768750I0J-218750D01*
G01*
X132475000Y-128206250D01*
G75*
G02*
X132256250Y-128425000I-218750J0D01*
G01*
X131743750Y-128425000D01*
G75*
G02*
X131525000Y-128206250I0J218750D01*
G01*
X131525000Y-127768750D01*
G75*
G02*
X131743750Y-127550000I218750J0D01*
G01*
G37*
G36*
G01*
X131743750Y-125975000D02*
X132256250Y-125975000D01*
G75*
G02*
X132475000Y-126193750I0J-218750D01*
G01*
X132475000Y-126631250D01*
G75*
G02*
X132256250Y-126850000I-218750J0D01*
G01*
X131743750Y-126850000D01*
G75*
G02*
X131525000Y-126631250I0J218750D01*
G01*
X131525000Y-126193750D01*
G75*
G02*
X131743750Y-125975000I218750J0D01*
G01*
G37*
%TD*%
%TO.C,C3*%
G36*
G01*
X139543750Y-130750000D02*
X140056250Y-130750000D01*
G75*
G02*
X140275000Y-130968750I0J-218750D01*
G01*
X140275000Y-131406250D01*
G75*
G02*
X140056250Y-131625000I-218750J0D01*
G01*
X139543750Y-131625000D01*
G75*
G02*
X139325000Y-131406250I0J218750D01*
G01*
X139325000Y-130968750D01*
G75*
G02*
X139543750Y-130750000I218750J0D01*
G01*
G37*
G36*
G01*
X139543750Y-129175000D02*
X140056250Y-129175000D01*
G75*
G02*
X140275000Y-129393750I0J-218750D01*
G01*
X140275000Y-129831250D01*
G75*
G02*
X140056250Y-130050000I-218750J0D01*
G01*
X139543750Y-130050000D01*
G75*
G02*
X139325000Y-129831250I0J218750D01*
G01*
X139325000Y-129393750D01*
G75*
G02*
X139543750Y-129175000I218750J0D01*
G01*
G37*
%TD*%
%TO.C,C2*%
G36*
G01*
X129350000Y-126056250D02*
X129350000Y-125543750D01*
G75*
G02*
X129568750Y-125325000I218750J0D01*
G01*
X130006250Y-125325000D01*
G75*
G02*
X130225000Y-125543750I0J-218750D01*
G01*
X130225000Y-126056250D01*
G75*
G02*
X130006250Y-126275000I-218750J0D01*
G01*
X129568750Y-126275000D01*
G75*
G02*
X129350000Y-126056250I0J218750D01*
G01*
G37*
G36*
G01*
X127775000Y-126056250D02*
X127775000Y-125543750D01*
G75*
G02*
X127993750Y-125325000I218750J0D01*
G01*
X128431250Y-125325000D01*
G75*
G02*
X128650000Y-125543750I0J-218750D01*
G01*
X128650000Y-126056250D01*
G75*
G02*
X128431250Y-126275000I-218750J0D01*
G01*
X127993750Y-126275000D01*
G75*
G02*
X127775000Y-126056250I0J218750D01*
G01*
G37*
%TD*%
%TO.C,C1*%
G36*
G01*
X145950000Y-125456250D02*
X145950000Y-124943750D01*
G75*
G02*
X146168750Y-124725000I218750J0D01*
G01*
X146606250Y-124725000D01*
G75*
G02*
X146825000Y-124943750I0J-218750D01*
G01*
X146825000Y-125456250D01*
G75*
G02*
X146606250Y-125675000I-218750J0D01*
G01*
X146168750Y-125675000D01*
G75*
G02*
X145950000Y-125456250I0J218750D01*
G01*
G37*
G36*
G01*
X144375000Y-125456250D02*
X144375000Y-124943750D01*
G75*
G02*
X144593750Y-124725000I218750J0D01*
G01*
X145031250Y-124725000D01*
G75*
G02*
X145250000Y-124943750I0J-218750D01*
G01*
X145250000Y-125456250D01*
G75*
G02*
X145031250Y-125675000I-218750J0D01*
G01*
X144593750Y-125675000D01*
G75*
G02*
X144375000Y-125456250I0J218750D01*
G01*
G37*
%TD*%
M02*
