%TF.GenerationSoftware,KiCad,Pcbnew,5.1.8-db9833491~87~ubuntu20.04.1*%
%TF.CreationDate,2020-11-29T21:19:56-07:00*%
%TF.ProjectId,smallcurrent,736d616c-6c63-4757-9272-656e742e6b69,rev?*%
%TF.SameCoordinates,Original*%
%TF.FileFunction,Soldermask,Top*%
%TF.FilePolarity,Negative*%
%FSLAX46Y46*%
G04 Gerber Fmt 4.6, Leading zero omitted, Abs format (unit mm)*
G04 Created by KiCad (PCBNEW 5.1.8-db9833491~87~ubuntu20.04.1) date 2020-11-29 21:19:56*
%MOMM*%
%LPD*%
G01*
G04 APERTURE LIST*
%ADD10C,1.800000*%
%ADD11R,1.800000X1.800000*%
%ADD12C,3.200000*%
%ADD13C,11.000000*%
%ADD14C,9.000000*%
%ADD15C,2.250000*%
%ADD16C,1.755000*%
%ADD17C,1.650000*%
%ADD18R,1.650000X1.650000*%
%ADD19O,1.700000X1.700000*%
%ADD20R,1.700000X1.700000*%
%ADD21O,0.900000X1.400000*%
%ADD22C,2.400000*%
G04 APERTURE END LIST*
D10*
%TO.C,D1*%
X106740000Y-129800000D03*
D11*
X104200000Y-129800000D03*
%TD*%
D12*
%TO.C,H4*%
X144750000Y-174750000D03*
%TD*%
%TO.C,H3*%
X144750000Y-104750000D03*
%TD*%
%TO.C,H2*%
X104750000Y-174750000D03*
%TD*%
%TO.C,H1*%
X104750000Y-104750000D03*
%TD*%
D13*
%TO.C,J4*%
X137000000Y-114500000D03*
%TD*%
%TO.C,J3*%
X112500000Y-114500000D03*
%TD*%
D14*
%TO.C,J2*%
X134250000Y-165500000D03*
%TD*%
%TO.C,J1*%
X115250000Y-165500000D03*
%TD*%
D15*
%TO.C,BT1*%
X122000000Y-157200000D03*
D16*
X122000000Y-137200000D03*
%TD*%
D17*
%TO.C,SW2*%
X103250000Y-147800000D03*
X103250000Y-144600000D03*
X103250000Y-141400000D03*
X103250000Y-138200000D03*
X108250000Y-147800000D03*
X108250000Y-144600000D03*
X108250000Y-141400000D03*
D18*
X108250000Y-138200000D03*
%TD*%
D17*
%TO.C,SW1*%
X141000000Y-147800000D03*
X141000000Y-144600000D03*
X141000000Y-141400000D03*
X141000000Y-138200000D03*
X146000000Y-147800000D03*
X146000000Y-144600000D03*
X146000000Y-141400000D03*
D18*
X146000000Y-138200000D03*
%TD*%
D19*
%TO.C,J6*%
X120220000Y-123800000D03*
X117680000Y-123800000D03*
X115140000Y-123800000D03*
D20*
X112600000Y-123800000D03*
%TD*%
%TO.C,J5*%
G36*
G01*
X111350000Y-129075000D02*
X111350000Y-128125000D01*
G75*
G02*
X111575000Y-127900000I225000J0D01*
G01*
X112025000Y-127900000D01*
G75*
G02*
X112250000Y-128125000I0J-225000D01*
G01*
X112250000Y-129075000D01*
G75*
G02*
X112025000Y-129300000I-225000J0D01*
G01*
X111575000Y-129300000D01*
G75*
G02*
X111350000Y-129075000I0J225000D01*
G01*
G37*
D21*
X113050000Y-128600000D03*
%TD*%
D22*
%TO.C,BC1*%
X121620000Y-117630000D03*
X127880000Y-117630000D03*
X127880000Y-111370000D03*
X121620000Y-111370000D03*
D17*
X124750000Y-114500000D03*
%TD*%
M02*
