M48
; DRILL file {KiCad 5.1.8-db9833491~87~ubuntu20.04.1} date Sun Nov 29 21:19:58 2020
; FORMAT={-:-/ absolute / inch / decimal}
; #@! TF.CreationDate,2020-11-29T21:19:58-07:00
; #@! TF.GenerationSoftware,Kicad,Pcbnew,5.1.8-db9833491~87~ubuntu20.04.1
; #@! TF.FileFunction,Plated,1,2,PTH
FMAT,2
INCH
T1C0.0157
T2C0.0236
T3C0.0354
T4C0.0394
T5C0.0433
T6C0.0461
T7C0.0591
T8C0.0630
T9C0.1732
T10C0.3150
%
G90
G05
T1
X4.7165Y-5.1811
X4.7795Y-5.1417
X4.9291Y-5.1496
X4.9291Y-5.2677
X5.0197Y-4.9956
X5.1417Y-5.0
T2
X4.4016Y-5.063
X4.4508Y-5.063
T3
X4.1024Y-5.1102
X4.2024Y-5.1102
T4
X4.4331Y-4.874
X4.5331Y-4.874
X4.6331Y-4.874
X4.7331Y-4.874
T5
X5.5512Y-5.4409
X5.5512Y-5.5669
X5.5512Y-5.6929
X5.5512Y-5.8189
X5.748Y-5.4409
X5.748Y-5.5669
X5.748Y-5.6929
X5.748Y-5.8189
X4.9114Y-4.5079
X4.065Y-5.4409
X4.065Y-5.5669
X4.065Y-5.6929
X4.065Y-5.8189
X4.2618Y-5.4409
X4.2618Y-5.5669
X4.2618Y-5.6929
X4.2618Y-5.8189
T6
X4.8031Y-5.4016
T7
X4.8031Y-6.189
T8
X4.7882Y-4.3846
X4.7882Y-4.6311
X5.0346Y-4.3846
X5.0346Y-4.6311
T9
X4.5374Y-6.5157
X5.2854Y-6.5157
T10
X5.3937Y-4.5079
X4.4291Y-4.5079
T0
M30
