%TF.GenerationSoftware,KiCad,Pcbnew,5.1.8-db9833491~87~ubuntu20.04.1*%
%TF.CreationDate,2020-11-29T21:19:56-07:00*%
%TF.ProjectId,smallcurrent,736d616c-6c63-4757-9272-656e742e6b69,rev?*%
%TF.SameCoordinates,Original*%
%TF.FileFunction,Legend,Top*%
%TF.FilePolarity,Positive*%
%FSLAX46Y46*%
G04 Gerber Fmt 4.6, Leading zero omitted, Abs format (unit mm)*
G04 Created by KiCad (PCBNEW 5.1.8-db9833491~87~ubuntu20.04.1) date 2020-11-29 21:19:56*
%MOMM*%
%LPD*%
G01*
G04 APERTURE LIST*
%ADD10C,0.200000*%
%ADD11C,0.150000*%
%ADD12C,0.300000*%
%ADD13C,0.500000*%
%ADD14C,0.002540*%
%ADD15C,0.120000*%
%ADD16C,0.127000*%
G04 APERTURE END LIST*
D10*
X127190476Y-147252380D02*
X126619047Y-147252380D01*
X126904761Y-147252380D02*
X126904761Y-146252380D01*
X126809523Y-146395238D01*
X126714285Y-146490476D01*
X126619047Y-146538095D01*
X128380952Y-147252380D02*
X128380952Y-146585714D01*
X128380952Y-146680952D02*
X128428571Y-146633333D01*
X128523809Y-146585714D01*
X128666666Y-146585714D01*
X128761904Y-146633333D01*
X128809523Y-146728571D01*
X128809523Y-147252380D01*
X128809523Y-146728571D02*
X128857142Y-146633333D01*
X128952380Y-146585714D01*
X129095238Y-146585714D01*
X129190476Y-146633333D01*
X129238095Y-146728571D01*
X129238095Y-147252380D01*
X129571428Y-146252380D02*
X129904761Y-147252380D01*
X130238095Y-146252380D01*
X131285714Y-146204761D02*
X130428571Y-147490476D01*
X131619047Y-147252380D02*
X131619047Y-146585714D01*
X131619047Y-146680952D02*
X131666666Y-146633333D01*
X131761904Y-146585714D01*
X131904761Y-146585714D01*
X132000000Y-146633333D01*
X132047619Y-146728571D01*
X132047619Y-147252380D01*
X132047619Y-146728571D02*
X132095238Y-146633333D01*
X132190476Y-146585714D01*
X132333333Y-146585714D01*
X132428571Y-146633333D01*
X132476190Y-146728571D01*
X132476190Y-147252380D01*
X132904761Y-146966666D02*
X133380952Y-146966666D01*
X132809523Y-147252380D02*
X133142857Y-146252380D01*
X133476190Y-147252380D01*
X135095238Y-147252380D02*
X134523809Y-147252380D01*
X134809523Y-147252380D02*
X134809523Y-146252380D01*
X134714285Y-146395238D01*
X134619047Y-146490476D01*
X134523809Y-146538095D01*
X135714285Y-146252380D02*
X135809523Y-146252380D01*
X135904761Y-146300000D01*
X135952380Y-146347619D01*
X136000000Y-146442857D01*
X136047619Y-146633333D01*
X136047619Y-146871428D01*
X136000000Y-147061904D01*
X135952380Y-147157142D01*
X135904761Y-147204761D01*
X135809523Y-147252380D01*
X135714285Y-147252380D01*
X135619047Y-147204761D01*
X135571428Y-147157142D01*
X135523809Y-147061904D01*
X135476190Y-146871428D01*
X135476190Y-146633333D01*
X135523809Y-146442857D01*
X135571428Y-146347619D01*
X135619047Y-146300000D01*
X135714285Y-146252380D01*
X136476190Y-147252380D02*
X136476190Y-146585714D01*
X136476190Y-146680952D02*
X136523809Y-146633333D01*
X136619047Y-146585714D01*
X136761904Y-146585714D01*
X136857142Y-146633333D01*
X136904761Y-146728571D01*
X136904761Y-147252380D01*
X136904761Y-146728571D02*
X136952380Y-146633333D01*
X137047619Y-146585714D01*
X137190476Y-146585714D01*
X137285714Y-146633333D01*
X137333333Y-146728571D01*
X137333333Y-147252380D01*
X128491904Y-143652380D02*
X127920476Y-143652380D01*
X128206190Y-143652380D02*
X128206190Y-142652380D01*
X128110952Y-142795238D01*
X128015714Y-142890476D01*
X127920476Y-142938095D01*
X128920476Y-143652380D02*
X128920476Y-142985714D01*
X128920476Y-143080952D02*
X128968095Y-143033333D01*
X129063333Y-142985714D01*
X129206190Y-142985714D01*
X129301428Y-143033333D01*
X129349047Y-143128571D01*
X129349047Y-143652380D01*
X129349047Y-143128571D02*
X129396666Y-143033333D01*
X129491904Y-142985714D01*
X129634761Y-142985714D01*
X129730000Y-143033333D01*
X129777619Y-143128571D01*
X129777619Y-143652380D01*
X130110952Y-142652380D02*
X130444285Y-143652380D01*
X130777619Y-142652380D01*
X131825238Y-142604761D02*
X130968095Y-143890476D01*
X132158571Y-142985714D02*
X132158571Y-143985714D01*
X132634761Y-143509523D02*
X132682380Y-143604761D01*
X132777619Y-143652380D01*
X132158571Y-143509523D02*
X132206190Y-143604761D01*
X132301428Y-143652380D01*
X132491904Y-143652380D01*
X132587142Y-143604761D01*
X132634761Y-143509523D01*
X132634761Y-142985714D01*
X133158571Y-143366666D02*
X133634761Y-143366666D01*
X133063333Y-143652380D02*
X133396666Y-142652380D01*
X133730000Y-143652380D01*
X135349047Y-143652380D02*
X134777619Y-143652380D01*
X135063333Y-143652380D02*
X135063333Y-142652380D01*
X134968095Y-142795238D01*
X134872857Y-142890476D01*
X134777619Y-142938095D01*
X135968095Y-142652380D02*
X136063333Y-142652380D01*
X136158571Y-142700000D01*
X136206190Y-142747619D01*
X136253809Y-142842857D01*
X136301428Y-143033333D01*
X136301428Y-143271428D01*
X136253809Y-143461904D01*
X136206190Y-143557142D01*
X136158571Y-143604761D01*
X136063333Y-143652380D01*
X135968095Y-143652380D01*
X135872857Y-143604761D01*
X135825238Y-143557142D01*
X135777619Y-143461904D01*
X135730000Y-143271428D01*
X135730000Y-143033333D01*
X135777619Y-142842857D01*
X135825238Y-142747619D01*
X135872857Y-142700000D01*
X135968095Y-142652380D01*
X137301428Y-143652380D02*
X136968095Y-143176190D01*
X136730000Y-143652380D02*
X136730000Y-142652380D01*
X137110952Y-142652380D01*
X137206190Y-142700000D01*
X137253809Y-142747619D01*
X137301428Y-142842857D01*
X137301428Y-142985714D01*
X137253809Y-143080952D01*
X137206190Y-143128571D01*
X137110952Y-143176190D01*
X136730000Y-143176190D01*
X128091904Y-139852380D02*
X127520476Y-139852380D01*
X127806190Y-139852380D02*
X127806190Y-138852380D01*
X127710952Y-138995238D01*
X127615714Y-139090476D01*
X127520476Y-139138095D01*
X129282380Y-139852380D02*
X129282380Y-139185714D01*
X129282380Y-139280952D02*
X129330000Y-139233333D01*
X129425238Y-139185714D01*
X129568095Y-139185714D01*
X129663333Y-139233333D01*
X129710952Y-139328571D01*
X129710952Y-139852380D01*
X129710952Y-139328571D02*
X129758571Y-139233333D01*
X129853809Y-139185714D01*
X129996666Y-139185714D01*
X130091904Y-139233333D01*
X130139523Y-139328571D01*
X130139523Y-139852380D01*
X130472857Y-138852380D02*
X130806190Y-139852380D01*
X131139523Y-138852380D01*
X132187142Y-138804761D02*
X131330000Y-140090476D01*
X132520476Y-139185714D02*
X132520476Y-139852380D01*
X132520476Y-139280952D02*
X132568095Y-139233333D01*
X132663333Y-139185714D01*
X132806190Y-139185714D01*
X132901428Y-139233333D01*
X132949047Y-139328571D01*
X132949047Y-139852380D01*
X133377619Y-139566666D02*
X133853809Y-139566666D01*
X133282380Y-139852380D02*
X133615714Y-138852380D01*
X133949047Y-139852380D01*
X135568095Y-139852380D02*
X134996666Y-139852380D01*
X135282380Y-139852380D02*
X135282380Y-138852380D01*
X135187142Y-138995238D01*
X135091904Y-139090476D01*
X134996666Y-139138095D01*
X136187142Y-138852380D02*
X136282380Y-138852380D01*
X136377619Y-138900000D01*
X136425238Y-138947619D01*
X136472857Y-139042857D01*
X136520476Y-139233333D01*
X136520476Y-139471428D01*
X136472857Y-139661904D01*
X136425238Y-139757142D01*
X136377619Y-139804761D01*
X136282380Y-139852380D01*
X136187142Y-139852380D01*
X136091904Y-139804761D01*
X136044285Y-139757142D01*
X135996666Y-139661904D01*
X135949047Y-139471428D01*
X135949047Y-139233333D01*
X135996666Y-139042857D01*
X136044285Y-138947619D01*
X136091904Y-138900000D01*
X136187142Y-138852380D01*
X136949047Y-139852380D02*
X136949047Y-138852380D01*
X137044285Y-139471428D02*
X137330000Y-139852380D01*
X137330000Y-139185714D02*
X136949047Y-139566666D01*
X111972857Y-138578571D02*
X112258571Y-138578571D01*
X112401428Y-138650000D01*
X112544285Y-138792857D01*
X112615714Y-139078571D01*
X112615714Y-139578571D01*
X112544285Y-139864285D01*
X112401428Y-140007142D01*
X112258571Y-140078571D01*
X111972857Y-140078571D01*
X111830000Y-140007142D01*
X111687142Y-139864285D01*
X111615714Y-139578571D01*
X111615714Y-139078571D01*
X111687142Y-138792857D01*
X111830000Y-138650000D01*
X111972857Y-138578571D01*
X113758571Y-139292857D02*
X113258571Y-139292857D01*
X113258571Y-140078571D02*
X113258571Y-138578571D01*
X113972857Y-138578571D01*
X115044285Y-139292857D02*
X114544285Y-139292857D01*
X114544285Y-140078571D02*
X114544285Y-138578571D01*
X115258571Y-138578571D01*
X111972857Y-142378571D02*
X112258571Y-142378571D01*
X112401428Y-142450000D01*
X112544285Y-142592857D01*
X112615714Y-142878571D01*
X112615714Y-143378571D01*
X112544285Y-143664285D01*
X112401428Y-143807142D01*
X112258571Y-143878571D01*
X111972857Y-143878571D01*
X111830000Y-143807142D01*
X111687142Y-143664285D01*
X111615714Y-143378571D01*
X111615714Y-142878571D01*
X111687142Y-142592857D01*
X111830000Y-142450000D01*
X111972857Y-142378571D01*
X113258571Y-143878571D02*
X113258571Y-142378571D01*
X114115714Y-143878571D01*
X114115714Y-142378571D01*
X111678571Y-147407142D02*
X111892857Y-147478571D01*
X112250000Y-147478571D01*
X112392857Y-147407142D01*
X112464285Y-147335714D01*
X112535714Y-147192857D01*
X112535714Y-147050000D01*
X112464285Y-146907142D01*
X112392857Y-146835714D01*
X112250000Y-146764285D01*
X111964285Y-146692857D01*
X111821428Y-146621428D01*
X111750000Y-146550000D01*
X111678571Y-146407142D01*
X111678571Y-146264285D01*
X111750000Y-146121428D01*
X111821428Y-146050000D01*
X111964285Y-145978571D01*
X112321428Y-145978571D01*
X112535714Y-146050000D01*
X113178571Y-147478571D02*
X113178571Y-145978571D01*
X113178571Y-146692857D02*
X114035714Y-146692857D01*
X114035714Y-147478571D02*
X114035714Y-145978571D01*
X115035714Y-145978571D02*
X115321428Y-145978571D01*
X115464285Y-146050000D01*
X115607142Y-146192857D01*
X115678571Y-146478571D01*
X115678571Y-146978571D01*
X115607142Y-147264285D01*
X115464285Y-147407142D01*
X115321428Y-147478571D01*
X115035714Y-147478571D01*
X114892857Y-147407142D01*
X114750000Y-147264285D01*
X114678571Y-146978571D01*
X114678571Y-146478571D01*
X114750000Y-146192857D01*
X114892857Y-146050000D01*
X115035714Y-145978571D01*
X117178571Y-147478571D02*
X116678571Y-146764285D01*
X116321428Y-147478571D02*
X116321428Y-145978571D01*
X116892857Y-145978571D01*
X117035714Y-146050000D01*
X117107142Y-146121428D01*
X117178571Y-146264285D01*
X117178571Y-146478571D01*
X117107142Y-146621428D01*
X117035714Y-146692857D01*
X116892857Y-146764285D01*
X116321428Y-146764285D01*
X117607142Y-145978571D02*
X118464285Y-145978571D01*
X118035714Y-147478571D02*
X118035714Y-145978571D01*
D11*
X102876190Y-126528571D02*
X103019047Y-126576190D01*
X103066666Y-126623809D01*
X103114285Y-126719047D01*
X103114285Y-126861904D01*
X103066666Y-126957142D01*
X103019047Y-127004761D01*
X102923809Y-127052380D01*
X102542857Y-127052380D01*
X102542857Y-126052380D01*
X102876190Y-126052380D01*
X102971428Y-126100000D01*
X103019047Y-126147619D01*
X103066666Y-126242857D01*
X103066666Y-126338095D01*
X103019047Y-126433333D01*
X102971428Y-126480952D01*
X102876190Y-126528571D01*
X102542857Y-126528571D01*
X103495238Y-126766666D02*
X103971428Y-126766666D01*
X103400000Y-127052380D02*
X103733333Y-126052380D01*
X104066666Y-127052380D01*
X104257142Y-126052380D02*
X104828571Y-126052380D01*
X104542857Y-127052380D02*
X104542857Y-126052380D01*
X105019047Y-126052380D02*
X105590476Y-126052380D01*
X105304761Y-127052380D02*
X105304761Y-126052380D01*
X106876190Y-126052380D02*
X107066666Y-126052380D01*
X107161904Y-126100000D01*
X107257142Y-126195238D01*
X107304761Y-126385714D01*
X107304761Y-126719047D01*
X107257142Y-126909523D01*
X107161904Y-127004761D01*
X107066666Y-127052380D01*
X106876190Y-127052380D01*
X106780952Y-127004761D01*
X106685714Y-126909523D01*
X106638095Y-126719047D01*
X106638095Y-126385714D01*
X106685714Y-126195238D01*
X106780952Y-126100000D01*
X106876190Y-126052380D01*
X107733333Y-127052380D02*
X107733333Y-126052380D01*
X108304761Y-127052380D02*
X107876190Y-126480952D01*
X108304761Y-126052380D02*
X107733333Y-126623809D01*
D10*
X121907142Y-173510714D02*
X121835714Y-173582142D01*
X121621428Y-173653571D01*
X121478571Y-173653571D01*
X121264285Y-173582142D01*
X121121428Y-173439285D01*
X121050000Y-173296428D01*
X120978571Y-173010714D01*
X120978571Y-172796428D01*
X121050000Y-172510714D01*
X121121428Y-172367857D01*
X121264285Y-172225000D01*
X121478571Y-172153571D01*
X121621428Y-172153571D01*
X121835714Y-172225000D01*
X121907142Y-172296428D01*
X123192857Y-172653571D02*
X123192857Y-173653571D01*
X122550000Y-172653571D02*
X122550000Y-173439285D01*
X122621428Y-173582142D01*
X122764285Y-173653571D01*
X122978571Y-173653571D01*
X123121428Y-173582142D01*
X123192857Y-173510714D01*
X123907142Y-173653571D02*
X123907142Y-172653571D01*
X123907142Y-172939285D02*
X123978571Y-172796428D01*
X124050000Y-172725000D01*
X124192857Y-172653571D01*
X124335714Y-172653571D01*
X124835714Y-173653571D02*
X124835714Y-172653571D01*
X124835714Y-172939285D02*
X124907142Y-172796428D01*
X124978571Y-172725000D01*
X125121428Y-172653571D01*
X125264285Y-172653571D01*
X126335714Y-173582142D02*
X126192857Y-173653571D01*
X125907142Y-173653571D01*
X125764285Y-173582142D01*
X125692857Y-173439285D01*
X125692857Y-172867857D01*
X125764285Y-172725000D01*
X125907142Y-172653571D01*
X126192857Y-172653571D01*
X126335714Y-172725000D01*
X126407142Y-172867857D01*
X126407142Y-173010714D01*
X125692857Y-173153571D01*
X127050000Y-172653571D02*
X127050000Y-173653571D01*
X127050000Y-172796428D02*
X127121428Y-172725000D01*
X127264285Y-172653571D01*
X127478571Y-172653571D01*
X127621428Y-172725000D01*
X127692857Y-172867857D01*
X127692857Y-173653571D01*
X128192857Y-172653571D02*
X128764285Y-172653571D01*
X128407142Y-172153571D02*
X128407142Y-173439285D01*
X128478571Y-173582142D01*
X128621428Y-173653571D01*
X128764285Y-173653571D01*
X122335714Y-176103571D02*
X122335714Y-174603571D01*
X123050000Y-175103571D02*
X123050000Y-176103571D01*
X123050000Y-175246428D02*
X123121428Y-175175000D01*
X123264285Y-175103571D01*
X123478571Y-175103571D01*
X123621428Y-175175000D01*
X123692857Y-175317857D01*
X123692857Y-176103571D01*
X124407142Y-175103571D02*
X124407142Y-176603571D01*
X124407142Y-175175000D02*
X124550000Y-175103571D01*
X124835714Y-175103571D01*
X124978571Y-175175000D01*
X125050000Y-175246428D01*
X125121428Y-175389285D01*
X125121428Y-175817857D01*
X125050000Y-175960714D01*
X124978571Y-176032142D01*
X124835714Y-176103571D01*
X124550000Y-176103571D01*
X124407142Y-176032142D01*
X126407142Y-175103571D02*
X126407142Y-176103571D01*
X125764285Y-175103571D02*
X125764285Y-175889285D01*
X125835714Y-176032142D01*
X125978571Y-176103571D01*
X126192857Y-176103571D01*
X126335714Y-176032142D01*
X126407142Y-175960714D01*
X126907142Y-175103571D02*
X127478571Y-175103571D01*
X127121428Y-174603571D02*
X127121428Y-175889285D01*
X127192857Y-176032142D01*
X127335714Y-176103571D01*
X127478571Y-176103571D01*
D12*
X135857142Y-104814285D02*
X138142857Y-104814285D01*
X111457142Y-104814285D02*
X113742857Y-104814285D01*
X112600000Y-105957142D02*
X112600000Y-103671428D01*
D10*
X120800000Y-101753571D02*
X121300000Y-103253571D01*
X121800000Y-101753571D01*
X122514285Y-103253571D02*
X122371428Y-103182142D01*
X122300000Y-103110714D01*
X122228571Y-102967857D01*
X122228571Y-102539285D01*
X122300000Y-102396428D01*
X122371428Y-102325000D01*
X122514285Y-102253571D01*
X122728571Y-102253571D01*
X122871428Y-102325000D01*
X122942857Y-102396428D01*
X123014285Y-102539285D01*
X123014285Y-102967857D01*
X122942857Y-103110714D01*
X122871428Y-103182142D01*
X122728571Y-103253571D01*
X122514285Y-103253571D01*
X123871428Y-103253571D02*
X123728571Y-103182142D01*
X123657142Y-103039285D01*
X123657142Y-101753571D01*
X124228571Y-102253571D02*
X124800000Y-102253571D01*
X124442857Y-101753571D02*
X124442857Y-103039285D01*
X124514285Y-103182142D01*
X124657142Y-103253571D01*
X124800000Y-103253571D01*
X125942857Y-103253571D02*
X125942857Y-102467857D01*
X125871428Y-102325000D01*
X125728571Y-102253571D01*
X125442857Y-102253571D01*
X125300000Y-102325000D01*
X125942857Y-103182142D02*
X125800000Y-103253571D01*
X125442857Y-103253571D01*
X125300000Y-103182142D01*
X125228571Y-103039285D01*
X125228571Y-102896428D01*
X125300000Y-102753571D01*
X125442857Y-102682142D01*
X125800000Y-102682142D01*
X125942857Y-102610714D01*
X127300000Y-102253571D02*
X127300000Y-103467857D01*
X127228571Y-103610714D01*
X127157142Y-103682142D01*
X127014285Y-103753571D01*
X126800000Y-103753571D01*
X126657142Y-103682142D01*
X127300000Y-103182142D02*
X127157142Y-103253571D01*
X126871428Y-103253571D01*
X126728571Y-103182142D01*
X126657142Y-103110714D01*
X126585714Y-102967857D01*
X126585714Y-102539285D01*
X126657142Y-102396428D01*
X126728571Y-102325000D01*
X126871428Y-102253571D01*
X127157142Y-102253571D01*
X127300000Y-102325000D01*
X128585714Y-103182142D02*
X128442857Y-103253571D01*
X128157142Y-103253571D01*
X128014285Y-103182142D01*
X127942857Y-103039285D01*
X127942857Y-102467857D01*
X128014285Y-102325000D01*
X128157142Y-102253571D01*
X128442857Y-102253571D01*
X128585714Y-102325000D01*
X128657142Y-102467857D01*
X128657142Y-102610714D01*
X127942857Y-102753571D01*
X121764285Y-104203571D02*
X122050000Y-104203571D01*
X122192857Y-104275000D01*
X122335714Y-104417857D01*
X122407142Y-104703571D01*
X122407142Y-105203571D01*
X122335714Y-105489285D01*
X122192857Y-105632142D01*
X122050000Y-105703571D01*
X121764285Y-105703571D01*
X121621428Y-105632142D01*
X121478571Y-105489285D01*
X121407142Y-105203571D01*
X121407142Y-104703571D01*
X121478571Y-104417857D01*
X121621428Y-104275000D01*
X121764285Y-104203571D01*
X123692857Y-104703571D02*
X123692857Y-105703571D01*
X123050000Y-104703571D02*
X123050000Y-105489285D01*
X123121428Y-105632142D01*
X123264285Y-105703571D01*
X123478571Y-105703571D01*
X123621428Y-105632142D01*
X123692857Y-105560714D01*
X124192857Y-104703571D02*
X124764285Y-104703571D01*
X124407142Y-104203571D02*
X124407142Y-105489285D01*
X124478571Y-105632142D01*
X124621428Y-105703571D01*
X124764285Y-105703571D01*
X125264285Y-104703571D02*
X125264285Y-106203571D01*
X125264285Y-104775000D02*
X125407142Y-104703571D01*
X125692857Y-104703571D01*
X125835714Y-104775000D01*
X125907142Y-104846428D01*
X125978571Y-104989285D01*
X125978571Y-105417857D01*
X125907142Y-105560714D01*
X125835714Y-105632142D01*
X125692857Y-105703571D01*
X125407142Y-105703571D01*
X125264285Y-105632142D01*
X127264285Y-104703571D02*
X127264285Y-105703571D01*
X126621428Y-104703571D02*
X126621428Y-105489285D01*
X126692857Y-105632142D01*
X126835714Y-105703571D01*
X127050000Y-105703571D01*
X127192857Y-105632142D01*
X127264285Y-105560714D01*
X127764285Y-104703571D02*
X128335714Y-104703571D01*
X127978571Y-104203571D02*
X127978571Y-105489285D01*
X128050000Y-105632142D01*
X128192857Y-105703571D01*
X128335714Y-105703571D01*
D13*
X104957142Y-155214285D02*
X105242857Y-155357142D01*
X105814285Y-155357142D01*
X106100000Y-155214285D01*
X106242857Y-154928571D01*
X106242857Y-154785714D01*
X106100000Y-154500000D01*
X105814285Y-154357142D01*
X105385714Y-154357142D01*
X105100000Y-154214285D01*
X104957142Y-153928571D01*
X104957142Y-153785714D01*
X105100000Y-153500000D01*
X105385714Y-153357142D01*
X105814285Y-153357142D01*
X106100000Y-153500000D01*
X107528571Y-155357142D02*
X107528571Y-153357142D01*
X107528571Y-153642857D02*
X107671428Y-153500000D01*
X107957142Y-153357142D01*
X108385714Y-153357142D01*
X108671428Y-153500000D01*
X108814285Y-153785714D01*
X108814285Y-155357142D01*
X108814285Y-153785714D02*
X108957142Y-153500000D01*
X109242857Y-153357142D01*
X109671428Y-153357142D01*
X109957142Y-153500000D01*
X110100000Y-153785714D01*
X110100000Y-155357142D01*
X112814285Y-155357142D02*
X112814285Y-153785714D01*
X112671428Y-153500000D01*
X112385714Y-153357142D01*
X111814285Y-153357142D01*
X111528571Y-153500000D01*
X112814285Y-155214285D02*
X112528571Y-155357142D01*
X111814285Y-155357142D01*
X111528571Y-155214285D01*
X111385714Y-154928571D01*
X111385714Y-154642857D01*
X111528571Y-154357142D01*
X111814285Y-154214285D01*
X112528571Y-154214285D01*
X112814285Y-154071428D01*
X114671428Y-155357142D02*
X114385714Y-155214285D01*
X114242857Y-154928571D01*
X114242857Y-152357142D01*
X116242857Y-155357142D02*
X115957142Y-155214285D01*
X115814285Y-154928571D01*
X115814285Y-152357142D01*
X119100000Y-155071428D02*
X118957142Y-155214285D01*
X118528571Y-155357142D01*
X118242857Y-155357142D01*
X117814285Y-155214285D01*
X117528571Y-154928571D01*
X117385714Y-154642857D01*
X117242857Y-154071428D01*
X117242857Y-153642857D01*
X117385714Y-153071428D01*
X117528571Y-152785714D01*
X117814285Y-152500000D01*
X118242857Y-152357142D01*
X118528571Y-152357142D01*
X118957142Y-152500000D01*
X119100000Y-152642857D01*
X121671428Y-153357142D02*
X121671428Y-155357142D01*
X120385714Y-153357142D02*
X120385714Y-154928571D01*
X120528571Y-155214285D01*
X120814285Y-155357142D01*
X121242857Y-155357142D01*
X121528571Y-155214285D01*
X121671428Y-155071428D01*
X123100000Y-155357142D02*
X123100000Y-153357142D01*
X123100000Y-153928571D02*
X123242857Y-153642857D01*
X123385714Y-153500000D01*
X123671428Y-153357142D01*
X123957142Y-153357142D01*
X124957142Y-155357142D02*
X124957142Y-153357142D01*
X124957142Y-153928571D02*
X125100000Y-153642857D01*
X125242857Y-153500000D01*
X125528571Y-153357142D01*
X125814285Y-153357142D01*
X127957142Y-155214285D02*
X127671428Y-155357142D01*
X127100000Y-155357142D01*
X126814285Y-155214285D01*
X126671428Y-154928571D01*
X126671428Y-153785714D01*
X126814285Y-153500000D01*
X127100000Y-153357142D01*
X127671428Y-153357142D01*
X127957142Y-153500000D01*
X128100000Y-153785714D01*
X128100000Y-154071428D01*
X126671428Y-154357142D01*
X129385714Y-153357142D02*
X129385714Y-155357142D01*
X129385714Y-153642857D02*
X129528571Y-153500000D01*
X129814285Y-153357142D01*
X130242857Y-153357142D01*
X130528571Y-153500000D01*
X130671428Y-153785714D01*
X130671428Y-155357142D01*
X131671428Y-153357142D02*
X132814285Y-153357142D01*
X132100000Y-152357142D02*
X132100000Y-154928571D01*
X132242857Y-155214285D01*
X132528571Y-155357142D01*
X132814285Y-155357142D01*
X135814285Y-153357142D02*
X136528571Y-155357142D01*
X137242857Y-153357142D01*
X139957142Y-155357142D02*
X138242857Y-155357142D01*
X139100000Y-155357142D02*
X139100000Y-152357142D01*
X138814285Y-152785714D01*
X138528571Y-153071428D01*
X138242857Y-153214285D01*
X141242857Y-155071428D02*
X141385714Y-155214285D01*
X141242857Y-155357142D01*
X141100000Y-155214285D01*
X141242857Y-155071428D01*
X141242857Y-155357142D01*
X143242857Y-152357142D02*
X143528571Y-152357142D01*
X143814285Y-152500000D01*
X143957142Y-152642857D01*
X144100000Y-152928571D01*
X144242857Y-153500000D01*
X144242857Y-154214285D01*
X144100000Y-154785714D01*
X143957142Y-155071428D01*
X143814285Y-155214285D01*
X143528571Y-155357142D01*
X143242857Y-155357142D01*
X142957142Y-155214285D01*
X142814285Y-155071428D01*
X142671428Y-154785714D01*
X142528571Y-154214285D01*
X142528571Y-153500000D01*
X142671428Y-152928571D01*
X142814285Y-152642857D01*
X142957142Y-152500000D01*
X143242857Y-152357142D01*
D14*
%TO.C,G\u002A\u002A\u002A*%
G36*
X103588420Y-169995780D02*
G01*
X103608740Y-169985620D01*
X103657000Y-169955140D01*
X103723040Y-169911960D01*
X103801780Y-169858620D01*
X103880520Y-169805280D01*
X103946560Y-169762100D01*
X103992280Y-169731620D01*
X104010060Y-169721460D01*
X104020220Y-169724000D01*
X104058320Y-169744320D01*
X104114200Y-169772260D01*
X104144680Y-169787500D01*
X104195480Y-169810360D01*
X104220880Y-169815440D01*
X104223420Y-169807820D01*
X104243740Y-169769720D01*
X104271680Y-169703680D01*
X104309780Y-169617320D01*
X104352960Y-169515720D01*
X104398680Y-169406500D01*
X104444400Y-169294740D01*
X104490120Y-169188060D01*
X104528220Y-169091540D01*
X104561240Y-169015340D01*
X104581560Y-168959460D01*
X104589180Y-168936600D01*
X104586640Y-168931520D01*
X104561240Y-168908660D01*
X104518060Y-168875640D01*
X104421540Y-168796900D01*
X104330100Y-168680060D01*
X104271680Y-168547980D01*
X104253900Y-168400660D01*
X104269140Y-168266040D01*
X104322480Y-168136500D01*
X104413920Y-168017120D01*
X104525680Y-167930760D01*
X104655220Y-167874880D01*
X104800000Y-167857100D01*
X104939700Y-167872340D01*
X105071780Y-167925680D01*
X105191160Y-168014580D01*
X105239420Y-168073000D01*
X105308000Y-168192380D01*
X105348640Y-168319380D01*
X105351180Y-168349860D01*
X105346100Y-168492100D01*
X105305460Y-168626720D01*
X105231800Y-168746100D01*
X105127660Y-168845160D01*
X105114960Y-168855320D01*
X105066700Y-168890880D01*
X105036220Y-168913740D01*
X105010820Y-168934060D01*
X105188620Y-169365860D01*
X105216560Y-169434440D01*
X105267360Y-169551280D01*
X105310540Y-169652880D01*
X105343560Y-169734160D01*
X105368960Y-169787500D01*
X105379120Y-169810360D01*
X105394360Y-169812900D01*
X105427380Y-169800200D01*
X105488340Y-169772260D01*
X105528980Y-169751940D01*
X105574700Y-169729080D01*
X105595020Y-169721460D01*
X105612800Y-169731620D01*
X105655980Y-169759560D01*
X105719480Y-169802740D01*
X105795680Y-169853540D01*
X105869340Y-169904340D01*
X105937920Y-169950060D01*
X105986180Y-169980540D01*
X106011580Y-169993240D01*
X106014120Y-169993240D01*
X106034440Y-169980540D01*
X106075080Y-169950060D01*
X106133500Y-169894180D01*
X106214780Y-169812900D01*
X106227480Y-169800200D01*
X106296060Y-169729080D01*
X106351940Y-169670660D01*
X106390040Y-169630020D01*
X106402740Y-169612240D01*
X106390040Y-169586840D01*
X106359560Y-169538580D01*
X106313840Y-169470000D01*
X106260500Y-169391260D01*
X106118260Y-169182980D01*
X106197000Y-168987400D01*
X106219860Y-168928980D01*
X106250340Y-168855320D01*
X106273200Y-168804520D01*
X106285900Y-168781660D01*
X106306220Y-168774040D01*
X106359560Y-168761340D01*
X106438300Y-168743560D01*
X106529740Y-168728320D01*
X106618640Y-168710540D01*
X106697380Y-168695300D01*
X106755800Y-168685140D01*
X106781200Y-168680060D01*
X106786280Y-168674980D01*
X106791360Y-168662280D01*
X106796440Y-168636880D01*
X106796440Y-168588620D01*
X106798980Y-168512420D01*
X106798980Y-168400660D01*
X106798980Y-168390500D01*
X106796440Y-168283820D01*
X106796440Y-168200000D01*
X106793900Y-168146660D01*
X106788820Y-168126340D01*
X106763420Y-168118720D01*
X106707540Y-168108560D01*
X106628800Y-168090780D01*
X106532280Y-168073000D01*
X106527200Y-168073000D01*
X106433220Y-168055220D01*
X106354480Y-168037440D01*
X106298600Y-168024740D01*
X106275740Y-168017120D01*
X106270660Y-168012040D01*
X106250340Y-167973940D01*
X106222400Y-167915520D01*
X106191920Y-167844400D01*
X106161440Y-167770740D01*
X106133500Y-167702160D01*
X106115720Y-167653900D01*
X106110640Y-167631040D01*
X106125880Y-167608180D01*
X106158900Y-167557380D01*
X106204620Y-167491340D01*
X106260500Y-167410060D01*
X106263040Y-167402440D01*
X106318920Y-167323700D01*
X106362100Y-167255120D01*
X106392580Y-167206860D01*
X106402740Y-167186540D01*
X106402740Y-167184000D01*
X106384960Y-167161140D01*
X106344320Y-167115420D01*
X106285900Y-167054460D01*
X106214780Y-166983340D01*
X106191920Y-166963020D01*
X106115720Y-166886820D01*
X106062380Y-166836020D01*
X106026820Y-166810620D01*
X106011580Y-166803000D01*
X106011580Y-166805540D01*
X105986180Y-166818240D01*
X105935380Y-166851260D01*
X105866800Y-166899520D01*
X105785520Y-166952860D01*
X105780440Y-166957940D01*
X105701700Y-167011280D01*
X105635660Y-167057000D01*
X105587400Y-167087480D01*
X105567080Y-167100180D01*
X105562000Y-167100180D01*
X105531520Y-167090020D01*
X105473100Y-167072240D01*
X105404520Y-167044300D01*
X105330860Y-167013820D01*
X105262280Y-166985880D01*
X105211480Y-166963020D01*
X105188620Y-166950320D01*
X105188620Y-166947780D01*
X105178460Y-166919840D01*
X105165760Y-166858880D01*
X105147980Y-166777600D01*
X105130200Y-166678540D01*
X105127660Y-166663300D01*
X105109880Y-166569320D01*
X105094640Y-166490580D01*
X105081940Y-166434700D01*
X105076860Y-166411840D01*
X105064160Y-166409300D01*
X105015900Y-166406760D01*
X104944780Y-166404220D01*
X104858420Y-166404220D01*
X104769520Y-166404220D01*
X104683160Y-166406760D01*
X104606960Y-166409300D01*
X104553620Y-166411840D01*
X104530760Y-166416920D01*
X104528220Y-166419460D01*
X104520600Y-166447400D01*
X104507900Y-166508360D01*
X104490120Y-166589640D01*
X104472340Y-166688700D01*
X104469800Y-166706480D01*
X104452020Y-166800460D01*
X104434240Y-166879200D01*
X104424080Y-166932540D01*
X104416460Y-166952860D01*
X104408840Y-166957940D01*
X104370740Y-166975720D01*
X104307240Y-167001120D01*
X104225960Y-167034140D01*
X104043080Y-167107800D01*
X103819560Y-166952860D01*
X103799240Y-166940160D01*
X103717960Y-166884280D01*
X103651920Y-166841100D01*
X103606200Y-166810620D01*
X103585880Y-166800460D01*
X103563020Y-166820780D01*
X103517300Y-166861420D01*
X103456340Y-166922380D01*
X103387760Y-166990960D01*
X103334420Y-167044300D01*
X103273460Y-167107800D01*
X103232820Y-167148440D01*
X103212500Y-167176380D01*
X103204880Y-167194160D01*
X103207420Y-167204320D01*
X103220120Y-167227180D01*
X103253140Y-167275440D01*
X103298860Y-167344020D01*
X103354740Y-167422760D01*
X103400460Y-167491340D01*
X103448720Y-167565000D01*
X103479200Y-167618340D01*
X103491900Y-167646280D01*
X103489360Y-167656440D01*
X103471580Y-167699620D01*
X103446180Y-167768200D01*
X103413160Y-167846940D01*
X103334420Y-168024740D01*
X103217580Y-168045060D01*
X103146460Y-168060300D01*
X103047400Y-168078080D01*
X102953420Y-168095860D01*
X102806100Y-168126340D01*
X102801020Y-168664820D01*
X102823880Y-168674980D01*
X102846740Y-168682600D01*
X102900080Y-168692760D01*
X102978820Y-168708000D01*
X103070260Y-168725780D01*
X103149000Y-168741020D01*
X103227740Y-168756260D01*
X103283620Y-168766420D01*
X103309020Y-168771500D01*
X103316640Y-168781660D01*
X103336960Y-168819760D01*
X103364900Y-168880720D01*
X103395380Y-168954380D01*
X103425860Y-169028040D01*
X103453800Y-169099160D01*
X103474120Y-169152500D01*
X103481740Y-169180440D01*
X103471580Y-169200760D01*
X103441100Y-169246480D01*
X103397920Y-169312520D01*
X103344580Y-169391260D01*
X103288700Y-169470000D01*
X103245520Y-169538580D01*
X103212500Y-169586840D01*
X103199800Y-169607160D01*
X103207420Y-169622400D01*
X103237900Y-169660500D01*
X103296320Y-169721460D01*
X103385220Y-169810360D01*
X103400460Y-169823060D01*
X103469040Y-169891640D01*
X103530000Y-169944980D01*
X103570640Y-169983080D01*
X103588420Y-169995780D01*
G37*
X103588420Y-169995780D02*
X103608740Y-169985620D01*
X103657000Y-169955140D01*
X103723040Y-169911960D01*
X103801780Y-169858620D01*
X103880520Y-169805280D01*
X103946560Y-169762100D01*
X103992280Y-169731620D01*
X104010060Y-169721460D01*
X104020220Y-169724000D01*
X104058320Y-169744320D01*
X104114200Y-169772260D01*
X104144680Y-169787500D01*
X104195480Y-169810360D01*
X104220880Y-169815440D01*
X104223420Y-169807820D01*
X104243740Y-169769720D01*
X104271680Y-169703680D01*
X104309780Y-169617320D01*
X104352960Y-169515720D01*
X104398680Y-169406500D01*
X104444400Y-169294740D01*
X104490120Y-169188060D01*
X104528220Y-169091540D01*
X104561240Y-169015340D01*
X104581560Y-168959460D01*
X104589180Y-168936600D01*
X104586640Y-168931520D01*
X104561240Y-168908660D01*
X104518060Y-168875640D01*
X104421540Y-168796900D01*
X104330100Y-168680060D01*
X104271680Y-168547980D01*
X104253900Y-168400660D01*
X104269140Y-168266040D01*
X104322480Y-168136500D01*
X104413920Y-168017120D01*
X104525680Y-167930760D01*
X104655220Y-167874880D01*
X104800000Y-167857100D01*
X104939700Y-167872340D01*
X105071780Y-167925680D01*
X105191160Y-168014580D01*
X105239420Y-168073000D01*
X105308000Y-168192380D01*
X105348640Y-168319380D01*
X105351180Y-168349860D01*
X105346100Y-168492100D01*
X105305460Y-168626720D01*
X105231800Y-168746100D01*
X105127660Y-168845160D01*
X105114960Y-168855320D01*
X105066700Y-168890880D01*
X105036220Y-168913740D01*
X105010820Y-168934060D01*
X105188620Y-169365860D01*
X105216560Y-169434440D01*
X105267360Y-169551280D01*
X105310540Y-169652880D01*
X105343560Y-169734160D01*
X105368960Y-169787500D01*
X105379120Y-169810360D01*
X105394360Y-169812900D01*
X105427380Y-169800200D01*
X105488340Y-169772260D01*
X105528980Y-169751940D01*
X105574700Y-169729080D01*
X105595020Y-169721460D01*
X105612800Y-169731620D01*
X105655980Y-169759560D01*
X105719480Y-169802740D01*
X105795680Y-169853540D01*
X105869340Y-169904340D01*
X105937920Y-169950060D01*
X105986180Y-169980540D01*
X106011580Y-169993240D01*
X106014120Y-169993240D01*
X106034440Y-169980540D01*
X106075080Y-169950060D01*
X106133500Y-169894180D01*
X106214780Y-169812900D01*
X106227480Y-169800200D01*
X106296060Y-169729080D01*
X106351940Y-169670660D01*
X106390040Y-169630020D01*
X106402740Y-169612240D01*
X106390040Y-169586840D01*
X106359560Y-169538580D01*
X106313840Y-169470000D01*
X106260500Y-169391260D01*
X106118260Y-169182980D01*
X106197000Y-168987400D01*
X106219860Y-168928980D01*
X106250340Y-168855320D01*
X106273200Y-168804520D01*
X106285900Y-168781660D01*
X106306220Y-168774040D01*
X106359560Y-168761340D01*
X106438300Y-168743560D01*
X106529740Y-168728320D01*
X106618640Y-168710540D01*
X106697380Y-168695300D01*
X106755800Y-168685140D01*
X106781200Y-168680060D01*
X106786280Y-168674980D01*
X106791360Y-168662280D01*
X106796440Y-168636880D01*
X106796440Y-168588620D01*
X106798980Y-168512420D01*
X106798980Y-168400660D01*
X106798980Y-168390500D01*
X106796440Y-168283820D01*
X106796440Y-168200000D01*
X106793900Y-168146660D01*
X106788820Y-168126340D01*
X106763420Y-168118720D01*
X106707540Y-168108560D01*
X106628800Y-168090780D01*
X106532280Y-168073000D01*
X106527200Y-168073000D01*
X106433220Y-168055220D01*
X106354480Y-168037440D01*
X106298600Y-168024740D01*
X106275740Y-168017120D01*
X106270660Y-168012040D01*
X106250340Y-167973940D01*
X106222400Y-167915520D01*
X106191920Y-167844400D01*
X106161440Y-167770740D01*
X106133500Y-167702160D01*
X106115720Y-167653900D01*
X106110640Y-167631040D01*
X106125880Y-167608180D01*
X106158900Y-167557380D01*
X106204620Y-167491340D01*
X106260500Y-167410060D01*
X106263040Y-167402440D01*
X106318920Y-167323700D01*
X106362100Y-167255120D01*
X106392580Y-167206860D01*
X106402740Y-167186540D01*
X106402740Y-167184000D01*
X106384960Y-167161140D01*
X106344320Y-167115420D01*
X106285900Y-167054460D01*
X106214780Y-166983340D01*
X106191920Y-166963020D01*
X106115720Y-166886820D01*
X106062380Y-166836020D01*
X106026820Y-166810620D01*
X106011580Y-166803000D01*
X106011580Y-166805540D01*
X105986180Y-166818240D01*
X105935380Y-166851260D01*
X105866800Y-166899520D01*
X105785520Y-166952860D01*
X105780440Y-166957940D01*
X105701700Y-167011280D01*
X105635660Y-167057000D01*
X105587400Y-167087480D01*
X105567080Y-167100180D01*
X105562000Y-167100180D01*
X105531520Y-167090020D01*
X105473100Y-167072240D01*
X105404520Y-167044300D01*
X105330860Y-167013820D01*
X105262280Y-166985880D01*
X105211480Y-166963020D01*
X105188620Y-166950320D01*
X105188620Y-166947780D01*
X105178460Y-166919840D01*
X105165760Y-166858880D01*
X105147980Y-166777600D01*
X105130200Y-166678540D01*
X105127660Y-166663300D01*
X105109880Y-166569320D01*
X105094640Y-166490580D01*
X105081940Y-166434700D01*
X105076860Y-166411840D01*
X105064160Y-166409300D01*
X105015900Y-166406760D01*
X104944780Y-166404220D01*
X104858420Y-166404220D01*
X104769520Y-166404220D01*
X104683160Y-166406760D01*
X104606960Y-166409300D01*
X104553620Y-166411840D01*
X104530760Y-166416920D01*
X104528220Y-166419460D01*
X104520600Y-166447400D01*
X104507900Y-166508360D01*
X104490120Y-166589640D01*
X104472340Y-166688700D01*
X104469800Y-166706480D01*
X104452020Y-166800460D01*
X104434240Y-166879200D01*
X104424080Y-166932540D01*
X104416460Y-166952860D01*
X104408840Y-166957940D01*
X104370740Y-166975720D01*
X104307240Y-167001120D01*
X104225960Y-167034140D01*
X104043080Y-167107800D01*
X103819560Y-166952860D01*
X103799240Y-166940160D01*
X103717960Y-166884280D01*
X103651920Y-166841100D01*
X103606200Y-166810620D01*
X103585880Y-166800460D01*
X103563020Y-166820780D01*
X103517300Y-166861420D01*
X103456340Y-166922380D01*
X103387760Y-166990960D01*
X103334420Y-167044300D01*
X103273460Y-167107800D01*
X103232820Y-167148440D01*
X103212500Y-167176380D01*
X103204880Y-167194160D01*
X103207420Y-167204320D01*
X103220120Y-167227180D01*
X103253140Y-167275440D01*
X103298860Y-167344020D01*
X103354740Y-167422760D01*
X103400460Y-167491340D01*
X103448720Y-167565000D01*
X103479200Y-167618340D01*
X103491900Y-167646280D01*
X103489360Y-167656440D01*
X103471580Y-167699620D01*
X103446180Y-167768200D01*
X103413160Y-167846940D01*
X103334420Y-168024740D01*
X103217580Y-168045060D01*
X103146460Y-168060300D01*
X103047400Y-168078080D01*
X102953420Y-168095860D01*
X102806100Y-168126340D01*
X102801020Y-168664820D01*
X102823880Y-168674980D01*
X102846740Y-168682600D01*
X102900080Y-168692760D01*
X102978820Y-168708000D01*
X103070260Y-168725780D01*
X103149000Y-168741020D01*
X103227740Y-168756260D01*
X103283620Y-168766420D01*
X103309020Y-168771500D01*
X103316640Y-168781660D01*
X103336960Y-168819760D01*
X103364900Y-168880720D01*
X103395380Y-168954380D01*
X103425860Y-169028040D01*
X103453800Y-169099160D01*
X103474120Y-169152500D01*
X103481740Y-169180440D01*
X103471580Y-169200760D01*
X103441100Y-169246480D01*
X103397920Y-169312520D01*
X103344580Y-169391260D01*
X103288700Y-169470000D01*
X103245520Y-169538580D01*
X103212500Y-169586840D01*
X103199800Y-169607160D01*
X103207420Y-169622400D01*
X103237900Y-169660500D01*
X103296320Y-169721460D01*
X103385220Y-169810360D01*
X103400460Y-169823060D01*
X103469040Y-169891640D01*
X103530000Y-169944980D01*
X103570640Y-169983080D01*
X103588420Y-169995780D01*
D15*
%TO.C,D1*%
X103910000Y-128564000D02*
X103910000Y-128720000D01*
X103910000Y-130880000D02*
X103910000Y-131036000D01*
X106511130Y-130879837D02*
G75*
G02*
X104429039Y-130880000I-1041130J1079837D01*
G01*
X106511130Y-128720163D02*
G75*
G03*
X104429039Y-128720000I-1041130J-1079837D01*
G01*
X107142335Y-130878608D02*
G75*
G02*
X103910000Y-131035516I-1672335J1078608D01*
G01*
X107142335Y-128721392D02*
G75*
G03*
X103910000Y-128564484I-1672335J-1078608D01*
G01*
D10*
%TO.C,SW2*%
X111600000Y-138250000D02*
G75*
G03*
X111600000Y-138250000I-100000J0D01*
G01*
D16*
X100650000Y-134600000D02*
X100650000Y-151400000D01*
X100650000Y-151400000D02*
X110850000Y-151400000D01*
X110850000Y-151400000D02*
X110850000Y-134600000D01*
X110850000Y-134600000D02*
X100650000Y-134600000D01*
D10*
%TO.C,SW1*%
X149350000Y-138250000D02*
G75*
G03*
X149350000Y-138250000I-100000J0D01*
G01*
D16*
X138400000Y-134600000D02*
X138400000Y-151400000D01*
X138400000Y-151400000D02*
X148600000Y-151400000D01*
X148600000Y-151400000D02*
X148600000Y-134600000D01*
X148600000Y-134600000D02*
X138400000Y-134600000D01*
%TO.C,BC1*%
X129575400Y-111874600D02*
G75*
G02*
X129601400Y-117116200I-4815290J-2644750D01*
G01*
X127450000Y-119300000D02*
G75*
G02*
X122104000Y-119327000I-2697871J4910957D01*
G01*
X119950000Y-117200000D02*
G75*
G02*
X119923000Y-111854000I4910957J2697871D01*
G01*
X122133800Y-109648600D02*
G75*
G02*
X127396000Y-109673000I2608826J-4815992D01*
G01*
%TD*%
M02*
